<?xml version="1.0" encoding="utf-8"?>
<!-- Generator: Adobe Illustrator 25.4.1, SVG Export Plug-In . SVG Version: 6.00 Build 0)  -->
<svg version="1.1" id="_x3C_Layer_x3E_" xmlns="http://www.w3.org/2000/svg" xmlns:xlink="http://www.w3.org/1999/xlink" x="0px"
	 y="0px" viewBox="0 0 2760 1840" style="enable-background:new 0 0 2760 1840;" xml:space="preserve">
<style type="text/css">
	.st0{fill:#97BBF9;}
	.st1{fill:#083B77;}
	.st2{fill:#ACC9C5;}
	.st3{fill:#EF8062;}
	.st4{fill:#FFB27D;}
	.st5{fill:#58A1C7;}
	.st6{fill:#331832;}
	.st7{fill:#5C305D;}
	.st8{fill:#080435;}
	.st9{fill:#FFFFFF;}
	.st10{fill:#366F90;}
	.st11{fill:#020202;}
	.st12{fill:#62B6D9;}
	.st13{fill:#FF9881;}
	.st14{opacity:0.4;}
	.st15{opacity:0.6;}
	.st16{fill:#B8D5DC;}
	.st17{fill:#444092;}
</style>
<g>
	<ellipse class="st0" cx="1405.41" cy="1447.38" rx="869.58" ry="106.5"/>
</g>
<g>
	<path class="st0" d="M1579.13,991.5c98.61-134.63,240.1-297.31,316.25-244.57c91.76,63.55-98.24,187.71-238.03,306.94
		C1607.2,1096.64,1516.29,1077.3,1579.13,991.5z"/>
</g>
<g>
	<g>
		<path class="st0" d="M1533.63,1260.67c0,0,395.02-501.88,550.05-380.52c155.03,121.37-351.73,272.7-461.31,422.75L1533.63,1260.67
			z"/>
	</g>
	<g>
		<g>
			<path class="st1" d="M1583.07,1284.75c73.87-105.04,188.17-192.3,271.04-247c89.84-59.31,163.09-94.17,163.82-94.51l-2.04-4.7
				c-0.73,0.35-74.3,35.36-164.43,94.86c-83.24,54.95-198.07,142.64-272.4,248.34L1583.07,1284.75z"/>
		</g>
	</g>
</g>
<g>
	<g>
		<g>
			<path class="st0" d="M2052.12,1280.3c-62.12,13.71-52.22,111.12-122.86,92.81c-59.74-15.52-64.75-21.25-85.53-3.46
				c-7.12,6.1-13.27,13.31-18.47,21.23c-6.23,9.49-18.25,23.45-36.43,26.69c-111.06,19.8-262.06-150.83-145.89-244.18
				c8.39-6.74,20.57-9.3,34.05-11.45c73.13-11.57,95.76,23.28,153.71-65.79c57.97-89.1,135.57,39.19,184.6,34.86
				c49.03-4.34,92.29-19.42,130.25,34.54C2183.5,1219.55,2114.24,1266.64,2052.12,1280.3z"/>
		</g>
	</g>
	<g>
		<g>
			<g>
				<path class="st1" d="M1677.77,1297.27l-2.31-3.6c1.53-1.06,156.97-106.15,478.81-112.81l0.08,4.33
					C1833.71,1191.83,1679.29,1296.22,1677.77,1297.27z"/>
			</g>
		</g>
		<g>
			<g>
				<path class="st1" d="M1878.55,1169.15c-42.28-39.75-49.61-71.21-49.9-72.53l4.07-0.97c0.07,0.31,7.44,31.56,48.64,70.3
					L1878.55,1169.15z"/>
			</g>
		</g>
		<g>
			<g>
				<path class="st1" d="M1885.7,1215.88c-11.83-21.83-10.57-53.22,3.66-90.78c10.65-28.13,24.97-50.17,25.11-50.39l3.45,2.42
					c-0.56,0.86-55.78,86.43-28.58,136.62L1885.7,1215.88z"/>
			</g>
		</g>
		<g>
			<g>
				<path class="st1" d="M1970.43,1208.65c-5.03-4.4-7.75-7.26-7.87-7.39l3-3.01c0.57,0.61,57.88,60.73,142.85,58.38l0.11,4.32
					C2040.04,1262.85,1989.18,1225.05,1970.43,1208.65z"/>
			</g>
		</g>
		<g>
			<g>
				<path class="st1" d="M2011.73,1308.9c-19.29-22.49-24.73-44.92-25.89-59.77c-1.27-16.17,2.04-26.9,2.18-27.35l3.97,1.34
					c-0.13,0.41-12.46,41.73,22.86,82.91L2011.73,1308.9z"/>
			</g>
		</g>
	</g>
</g>
<g>
	<path class="st2" d="M1676.82,757.48c3.16-16.66,11.91-20.2,21.54-18.44c9.63,1.76,16.49,8.14,13.33,24.8
		c-5.76,30.35-25.98,41.84-25.98,41.84S1670.98,788.28,1676.82,757.48z"/>
</g>
<g>
	<path class="st2" d="M670.28,1114.8c-16.89-1.54-21.25-9.9-20.43-19.66c0.82-9.75,6.51-17.2,23.4-15.67
		c30.77,2.8,44.16,21.82,44.16,21.82S701.5,1117.64,670.28,1114.8z"/>
</g>
<g>
	<path class="st2" d="M2055.63,1056.34c16.08-5.39,23.44,0.52,26.61,9.78c3.17,9.26,0.96,18.37-15.12,23.75
		c-29.3,9.81-49.2-2.21-49.2-2.21S2025.91,1066.29,2055.63,1056.34z"/>
</g>
<g>
	<g>
		<path class="st3" d="M1765.76,1027.65c-129.9-29.13-278.53-88.41-441.76-176.21c-129.99-69.92-238.79-129.86-289.05-163.16
			c0,0,62.43-156.69,89.82-138.54c48.34,32.03,148.91,98.68,272.64,165.22c150.8,81.11,286.14,135.43,402.26,161.47L1765.76,1027.65
			z"/>
	</g>
</g>
<g>
	<g>
		<g>
			<path class="st2" d="M1196.16,903.21c-9.85,6.67-14.92,5.55-17.56,1.71c-2.64-3.84-1.85-8.93,8-15.6
				c17.94-12.16,31.4-11.09,31.4-11.09S1214.36,890.88,1196.16,903.21z"/>
		</g>
		<g>
			<path class="st2" d="M1200.98,979.83c-7.14,9.48-12.3,10.05-16.05,7.26c-3.75-2.78-4.66-7.86,2.48-17.34
				c13.01-17.27,26.08-20.58,26.08-20.58S1214.18,962.31,1200.98,979.83z"/>
		</g>
		<g>
			<g>
				<g>
					<path class="st2" d="M1210.12,1179.45l-2.26-0.04c0.01-0.34,0.43-35.13-14.82-85.02c-14.07-46.03-44.73-114.71-110.94-180.46
						l1.6-1.58c66.57,66.11,97.4,135.19,111.53,181.49C1210.57,1144.03,1210.13,1179.1,1210.12,1179.45z"/>
				</g>
			</g>
			<g>
				<g>
					<path class="st2" d="M1150.25,996.5l-1.98-1.08c39.37-71.37,6.98-152.64,6.65-153.45l2.09-0.84
						C1157.35,841.95,1190.14,924.18,1150.25,996.5z"/>
				</g>
			</g>
			<g>
				<g>
					<path class="st2" d="M1113.79,962.49c-22.89,1.54-40.98-8.67-41.19-8.79l1.13-1.94c0.23,0.13,23.41,13.18,50.16,6.98l0.52,2.18
						C1120.79,961.76,1117.23,962.26,1113.79,962.49z"/>
				</g>
			</g>
			<g>
				<g>
					<path class="st2" d="M1079.73,901.55c12.67,9.87,14.09,15.77,11.21,19.42c-2.89,3.65-8.99,3.67-21.66-6.2
						c-23.07-17.98-29-33.28-29-33.28S1056.33,883.3,1079.73,901.55z"/>
				</g>
			</g>
			<g>
				<g>
					<path class="st2" d="M1078.14,946.06c15.07,5.63,18.22,10.82,16.58,15.17c-1.64,4.35-7.46,6.19-22.53,0.57
						c-27.45-10.25-37.75-23.07-37.75-23.07S1050.29,935.66,1078.14,946.06z"/>
				</g>
			</g>
			<g>
				<g>
					<path class="st2" d="M1134.35,925.31c3.52,11.32,0.94,15.8-3.53,17.16c-4.47,1.36-9.14-0.9-12.66-12.23
						c-6.41-20.63-1.41-33.06-1.41-33.06S1127.85,904.38,1134.35,925.31z"/>
				</g>
			</g>
			<g>
				<g>
					<path class="st2" d="M1161.13,831.75c4.82,15.25,2.64,20.9-1.82,22.29c-4.46,1.38-9.51-2.03-14.34-17.27
						c-8.78-27.77-4.95-43.7-4.95-43.7S1152.22,803.57,1161.13,831.75z"/>
				</g>
			</g>
		</g>
	</g>
</g>
<g>
	<path class="st0" d="M1235.54,1155.21c0,0-371.04-406.94-478.81-302.32c-107.77,104.62,309.66,217.71,413.88,339.59
		L1235.54,1155.21z"/>
</g>
<g>
	<g>
		<path class="st0" d="M1088.39,1098.31c0,0-390.6-279.02-483.29-160.05c-92.69,118.96,314.63,123.43,425.05,208.6L1088.39,1098.31z
			"/>
	</g>
	<g>
		<g>
			<path class="st1" d="M1056.05,1125.75c-75.17-60.2-177.16-99.34-249.47-121.57c-78.4-24.1-139.74-34.07-140.36-34.17l0.63-3.79
				c0.61,0.1,62.23,10.11,140.88,34.29c72.63,22.33,175.1,61.67,250.74,122.25L1056.05,1125.75z"/>
		</g>
	</g>
</g>
<g>
	<g>
		<g>
			<path class="st0" d="M718.66,1330.11c79.66-0.07,91.57,117.07,173.78,77.13c69.65-33.89,74.27-41.91,104.33-26.29
				c10.19,5.3,19.46,12.15,27.76,20.06c9.99,9.53,28.2,22.82,51.32,21.9c141.25-5.66,284.51-245.71,118.8-325.22
				c-11.97-5.74-27.55-5.58-44.64-4.59c-92.65,5.46-111.82,52.35-204.98-37.31c-93.19-89.68-156.77,81.44-218.04,89.12
				c-61.27,7.68-118.11,1.21-151.39,74.58C542.33,1292.91,639.01,1330.23,718.66,1330.11z"/>
		</g>
	</g>
	<g>
		<g>
			<g>
				<path class="st1" d="M1182.49,1252.47l1.95-4.84c-2.14-0.85-218.96-83.92-615.79-7.86l0.97,5.11
					C964.97,1169.11,1180.36,1251.63,1182.49,1252.47z"/>
			</g>
		</g>
		<g>
			<g>
				<path class="st1" d="M904.31,1154.14c42.09-57.77,43.32-96.69,43.35-98.32l-5.24-0.08c-0.01,0.38-1.34,39.06-42.36,95.36
					L904.31,1154.14z"/>
			</g>
		</g>
		<g>
			<g>
				<path class="st1" d="M907.07,1210.96c9.13-28.76-0.18-65.35-26.92-105.82c-20.03-30.31-43.05-52.49-43.29-52.71l-3.64,3.75
					c0.9,0.86,89.85,87.11,68.85,153.24L907.07,1210.96z"/>
			</g>
		</g>
		<g>
			<g>
				<path class="st1" d="M801.25,1224.54c5.09-6.49,7.72-10.56,7.84-10.74l-4.43-2.76c-0.55,0.86-56.06,86.52-160.97,105.9
					l0.94,5.11C729.17,1306.43,782.28,1248.71,801.25,1224.54z"/>
			</g>
		</g>
		<g>
			<g>
				<path class="st1" d="M775.31,1353.21c18.13-31.48,19.26-59.28,17.02-77.05c-2.44-19.34-9.15-31.11-9.43-31.6l-4.55,2.61
					c0.26,0.45,25.61,45.83-7.59,103.47L775.31,1353.21z"/>
			</g>
		</g>
	</g>
</g>
<g>
	<g>
		<path class="st3" d="M1752.15,1434.01c-119.58,0-256.02-14.29-407.93-42.81c-187.27-35.15-384.74-86.34-462.15-109.1l82.37-152.69
			c74.87,22.01,230.66,67.79,409.88,101.44c217.62,40.85,397.69,50.55,535.22,28.84l25.44,161.15
			C1879.39,1429.63,1818.35,1434.01,1752.15,1434.01z"/>
	</g>
</g>
<g>
	<g>
		<path class="st4" d="M1512.86,700.06c-2.01-6.25-3.3-19.52-5.19-25.81c-0.82-2.73-2.98-12.1-0.48-13.31
			c2.17-1.05,7.29,5.55,9.36,9c6.51-22.34,23.28-48.52,12.37-3.14c0.02,0,0.04,0.01,0.06,0.02c1.23-3.81,9.34-32.15,15.01-28.45
			c4.15,2.71-3.21,25.8-5.18,32.1c0.05,0.03,0.11,0.05,0.16,0.08c2.53-6.22,9.16-25.45,13.25-23.05c5.38,3.15-3.96,27.64-3.96,27.64
			s7.25-20.52,11.74-14.76c2.54,3.25-2.14,15.24-5.16,22.66l0,0c0,0,0,0,0,0c-0.63,1.56-1.19,2.92-1.6,3.95
			c-0.34,0.86-0.72,1.58-1.15,2.19c-5.8,12.07-11.48,18.83-11.48,18.83s-5.29,9.16-16.08,5.43
			C1517.66,711.05,1513.73,702.77,1512.86,700.06z"/>
	</g>
	<g>
		<path class="st5" d="M1301.51,901.48c0,0,6.6-38.84,75.57-44.49c53.12-4.35,106.97,26.97,113.36,74.59
			c8.84,65.85,10.41,101.06,3.28,134.24c0,0-146.16-26.5-191.41,5.45c0,0,15.54-61.1-1.89-147.31
			C1298.65,915.22,1299.5,908.41,1301.51,901.48z"/>
	</g>
	<g>
		<g>
			<path class="st5" d="M1233.39,734.5c14.62,49.18,93.92,124.35,122.54,125.56c6.16,0.26-52.93,76.47-53.92,73.23
				c-4.96-16.22-9.74-23.31-20.28-35.14c-34.52-38.71-81.67-90.62-89.63-138.36L1233.39,734.5z"/>
		</g>
	</g>
	<g>
		<path class="st5" d="M1390.76,857.53c0,0,101.65-41.22,115.22-149.25c0.83-6.58,6.94-11.02,13.24-9.62l19.88,4.42
			c3.63,0.81,6.24,4.05,6.32,7.87c0.44,20.33-2.24,86.14-47.65,170.4c-4.66,8.65-13.95,22.03-7.48,50.13L1390.76,857.53z"/>
	</g>
	<g>
		<path class="st6" d="M1302.17,1071.17c0.09,9.46,42.92,14.34,95.97,13.51c53.05-0.82,95.52-9.5,95.43-18.97
			c-0.09-9.46-44.08-25.54-97.13-24.71C1343.4,1041.83,1302.08,1061.71,1302.17,1071.17z"/>
	</g>
	<g>
		<g>
			<path class="st4" d="M1378.01,847.5l1.65-18.35l0.48-5.34l2.82-31.41l7.2,29.07l4.32,17.45l1.37,5.52
				c0.93,3.75,3.33,4.06,6.73,6.75c1.38,1.09,10.11,7.63,2.83,13.02c-9.06,6.72-29.16,3.9-38.12-3.56
				C1367.33,860.62,1377.48,853.43,1378.01,847.5z"/>
		</g>
		<g>
			<g>
				<path class="st7" d="M1403.52,776.37c0,0,3.28,6.74,3.31,16.08c0.03,9.34-13.34-10.72-13.34-10.72L1403.52,776.37z"/>
			</g>
			<g>
				
					<ellipse transform="matrix(0.9565 -0.2918 0.2918 0.9565 -174.3014 438.819)" class="st4" cx="1383.86" cy="803.7" rx="26.1" ry="32.2"/>
			</g>
			<g>
				<path class="st6" d="M1356.82,803.7l12.06-4c2.65-0.88,4.82-2.92,5.8-5.6c1.69-4.62,4.3-7.36,15.89-9.42
					c14.67-2.61,22.45-13.63,22.41-21.8c-0.04-8.35-8.6-12.15-15.13-6.74c-6.53,5.4-5.31-4.63-12.55-4.09
					c-13.52,1-13.84,11.96-24.67,13.96c-14.2,2.62-37.2,19.15-19.96,42.09L1356.82,803.7z"/>
			</g>
			<g>
				<g>
					<path class="st8" d="M1384.93,802.09c0.11-0.11,0.18-0.28,0.16-0.46c-0.04-0.3-0.3-0.51-0.59-0.47
						c-0.17,0.02-4.16,0.15-5.23,4.78c-0.07,0.29,0.1,0.59,0.38,0.66c0.28,0.08,0.51-0.12,0.64-0.39c1.33-2.67,4.2-3.95,4.34-3.97
						C1384.74,802.22,1384.85,802.17,1384.93,802.09z"/>
				</g>
			</g>
			<g>
				<path class="st8" d="M1384.09,809.39c0.58,1.15,1.7,1.74,2.51,1.31c0.81-0.43,1-1.71,0.43-2.86c-0.58-1.15-1.7-1.74-2.51-1.31
					C1383.71,806.95,1383.51,808.24,1384.09,809.39z"/>
			</g>
			<g>
				<g>
					<path class="st8" d="M1403.7,796.36c0.11-0.05,0.2-0.16,0.22-0.33c0.04-0.27-0.12-0.58-0.35-0.67
						c-0.14-0.06-3.25-1.76-5.14,1.76c-0.12,0.22-0.06,0.55,0.14,0.74c0.2,0.19,0.42,0.13,0.59-0.04c1.64-1.71,4.15-1.52,4.26-1.47
						C1403.53,796.39,1403.62,796.39,1403.7,796.36z"/>
				</g>
			</g>
			<g>
				<path class="st8" d="M1400.11,802.82c0.11,1.29,0.93,2.27,1.84,2.19c0.91-0.08,1.56-1.19,1.46-2.48s-0.93-2.27-1.84-2.19
					C1400.66,800.42,1400.01,801.53,1400.11,802.82z"/>
			</g>
			<g>
				<path class="st7" d="M1340.67,808.09c0,0,12.4,17.04,24.75,15.8c0,0-12.72-12.28,6.05-25.53
					C1371.46,798.37,1351.95,799.42,1340.67,808.09z"/>
			</g>
			<g>
				<path class="st4" d="M1359.83,814.82c2.93,1.13,6.1-0.14,7.08-2.83c0.98-2.69-0.6-5.79-3.53-6.92c-2.93-1.13-6.1,0.14-7.08,2.83
					C1355.32,810.59,1356.9,813.69,1359.83,814.82z"/>
			</g>
			<g>
				<path class="st7" d="M1371.46,798.37c0,0,1.61,16.22,5.37,18.53s24.73-0.9,33.61-6.85v0c2.25,10.15-2.87,20.66-12.29,24.47
					c-3.12,1.26-6.46,1.99-9.9,2.12l0,0c-7.02,0.26-14.19-1.19-18.31-7.04c-1.25-1.78-1.27-14.41-1.27-14.41s-0.53-7.3-5.3-10.12
					C1363.37,805.07,1367.13,799.78,1371.46,798.37z"/>
			</g>
			<g>
				<path class="st9" d="M1406.52,816.88c0,0-7.48,3.94-16.33,4.96c0,0,2.97,7.98,11.41,4.43
					C1406.5,824.2,1406.52,816.88,1406.52,816.88z"/>
			</g>
			<g>
				<path class="st6" d="M1394.85,755.36c-2.87,0-3.69-2.62-3.7-2.65l0.69-0.21c0.03,0.1,0.68,2.13,3.03,2.13
					c0.36,0,0.76-0.04,1.2-0.16l0.17,0.7C1395.73,755.3,1395.27,755.36,1394.85,755.36z"/>
			</g>
			<g>
				<path class="st9" d="M1393.83,779.58l-0.17-0.31c0.14-0.08,14.66-8.18,13.62-16.51c-0.3-2.39-1.01-3.86-2.16-4.49
					c-1.81-0.97-4.44,0.27-6.77,1.4c-0.37,0.17-0.72,0.34-1.06,0.51l-0.16-0.34c0.35-0.16,0.7-0.33,1.06-0.5
					c2.41-1.15,5.15-2.47,7.1-1.38c1.27,0.69,2.03,2.24,2.34,4.75C1408.71,771.29,1394.44,779.25,1393.83,779.58z"/>
			</g>
			<g>
				<path class="st9" d="M1355.19,770.27l-0.03-0.37c15.54-1.17,21.03-11.5,21.09-11.61l0.33,0.16
					C1376.51,758.56,1370.94,769.07,1355.19,770.27z"/>
			</g>
		</g>
	</g>
	<g>
		<path class="st6" d="M1218.8,758.61c-13.81,10.97-23.69,6.99-26.71,1.19c-3.02-5.8,4.05-15.74,15.79-22.19
			c11.73-6.46,22.49-8.9,25.51-3.1S1229.34,750.24,1218.8,758.61z"/>
	</g>
	<g>
		<path class="st6" d="M1425.52,1017.04c-0.39,2.18-2.43,3.62-4.55,3.22c-2.12-0.4-3.52-2.5-3.13-4.68
			c0.39-2.18,1.99-3.99,4.11-3.59C1424.95,1012.57,1425.91,1014.86,1425.52,1017.04z"/>
	</g>
	<g>
		<path class="st6" d="M1421.61,981.14c-0.39,2.18-2.43,3.62-4.55,3.22c-2.12-0.4-3.52-2.5-3.13-4.68c0.39-2.18,1.99-3.99,4.11-3.59
			C1421.04,976.66,1422,978.96,1421.61,981.14z"/>
	</g>
	<g>
		<path class="st6" d="M1416.78,940.48c-0.39,2.18-2.43,3.62-4.55,3.22c-2.12-0.4-3.52-2.5-3.13-4.68c0.39-2.18,1.99-3.99,4.11-3.59
			C1416.21,936.01,1417.17,938.3,1416.78,940.48z"/>
	</g>
	<g>
		<path class="st6" d="M1396.78,1421.39c0,0-0.37,14.61,9.84,19.3c10.21,4.69,40.22,10.06,28.45,18.82
			c-6.75,5.03-37.09-0.12-45.71-0.6c-8.62-0.47-16.89,2.64-23.01-3.17c-6.73-6.4,1.86-35.92,1.86-35.92s7.25,4.08,13.94,4.28
			C1391.8,1424.39,1396.78,1421.39,1396.78,1421.39z"/>
	</g>
	<g>
		<path class="st10" d="M1449.43,1059.66c32.26,7.69,38.07,11.31,36.04,31.16c-2.08,20.33-7.6,65.14-18.38,112.05
			c-19.24,83.77-41.2,168.04-51.92,208.43c-3.84,14.45-17.37,24.42-32.78,24.16l-8.28-0.14c-16.66-0.28-29.46-14.55-27.41-30.57
			l35.21-275.31l2.55-58.27L1449.43,1059.66z"/>
	</g>
	<g>
		<path class="st6" d="M1270.02,1421.39c0,0-0.37,14.61,9.84,19.3c10.21,4.69,40.22,10.06,28.45,18.82
			c-6.75,5.03-37.09-0.12-45.71-0.6c-8.62-0.47-16.89,2.64-23.01-3.17c-6.73-6.4,1.86-35.92,1.86-35.92s7.25,4.08,13.94,4.28
			C1265.03,1424.39,1270.02,1421.39,1270.02,1421.39z"/>
	</g>
	<g>
		<path class="st10" d="M1449.43,1059.66l-153.38,352.78c-5.62,14.51-20.19,23.86-36.2,23.24l-6.98-0.27
			c-16.48-0.64-28.31-15.74-24.5-31.27l87.05-332.96C1317.52,1063.7,1379.67,1045.9,1449.43,1059.66z"/>
	</g>
	<g>
		<path class="st11" d="M1366.41,1251.41c-0.08,0-0.16-0.01-0.24-0.04c-0.42-0.13-0.65-0.57-0.52-0.99l31.68-100.66
			c0.95-2.36,1.87-4.79,2.82-7.32c5.69-15.16,12.78-34.03,33.02-47c0.35-0.23,0.86-0.13,1.1,0.25c0.23,0.37,0.13,0.86-0.24,1.11
			c-19.79,12.67-26.78,31.27-32.39,46.2c-0.95,2.54-1.87,4.98-2.81,7.29l-31.65,100.6
			C1367.06,1251.19,1366.75,1251.41,1366.41,1251.41z"/>
	</g>
	<g>
		<path class="st4" d="M1222.27,735.66c0.95-6.5,0.04-19.8,0.87-26.31c0.36-2.83,0.94-12.43-1.72-13.21
			c-2.32-0.68-6.27,6.67-7.75,10.42c-10.1-20.96-30.95-44.03-12.72-1.06c-0.02,0.01-0.04,0.02-0.06,0.02
			c-1.85-3.56-14.5-30.17-19.49-25.59c-3.65,3.36,7.42,24.92,10.39,30.81c-0.05,0.03-0.1,0.07-0.15,0.1
			c-3.52-5.72-13.23-23.59-16.87-20.56c-4.79,3.99,8.46,26.61,8.46,26.61s-10.53-19.05-14.02-12.62c-1.97,3.62,4.62,14.68,8.82,21.5
			l0,0c0,0,0,0,0,0c0.88,1.43,1.66,2.68,2.23,3.63c0.47,0.79,0.97,1.43,1.5,1.98c7.71,10.95,14.43,16.68,14.43,16.68
			s6.73,8.16,16.76,2.71C1219.34,747.28,1221.86,738.47,1222.27,735.66z"/>
	</g>
	<g>
		<path class="st7" d="M1394.49,875.3c-3.28,16.38-21.39,80.37-108.29,113.54c-5.58,2.13-10.6,5.59-14.56,10.16l-15.77,18.2
			c-2.85,3.28-1.74,8.47,2.18,10.22l23.15,10.36c7.93,3.55,16.88,3.93,25.03,0.96c28.19-10.3,100.65-63.38,100.62-168.5
			c0-4.49-3.58-1-7.8,0.12l0,0C1396.75,870.98,1394.97,872.89,1394.49,875.3z"/>
	</g>
	<g>
		<path class="st6" d="M1389.71,861.44c0,0,11.84-4.78,15.28-2.03c3.44,2.75,2.06,16.62-3.44,18.27
			C1396.06,879.32,1384.43,865.17,1389.71,861.44z"/>
	</g>
	<g>
		<path class="st12" d="M1396.6,857.67c0,0-16.24-4.55-19.74-10.06c-3.5-5.52-18.92,9.02-18.35,12.97
			c0.57,3.95,31.66,23.72,33.39,20.79C1393.63,878.44,1400.73,861.14,1396.6,857.67z"/>
	</g>
	<g>
		<path class="st12" d="M1396.6,857.67c0,0,1.93-6.22,0.55-9.41c0,0-0.96-2.82,1.47-2.81c2.42,0.01,16.22,8.44,17.58,11.23
			c1.36,2.79,2.53,16.26-1.64,17.58c-4.17,1.32-15.44-12.4-16.75-13.74C1396.5,859.17,1396.6,857.67,1396.6,857.67z"/>
	</g>
</g>
<g>
	<g>
		<path class="st13" d="M882.07,1282.1l5.22-137.53c0.46-12.11,9.62-22.13,21.65-23.64c528.31-66.61,769.11-160.8,890.73-244.5
			l57.67,117.64c3.37,6.87,1.15,15.18-5.21,19.42c-126.84,84.57-274.43,136.74-512.29,191.58
			c-191.68,44.19-366.74,65.72-432.64,73.82C895.87,1280.3,886.1,1281.5,882.07,1282.1z"/>
	</g>
</g>
<g>
	<g>
		<path class="st13" d="M1034.95,688.28l-4.25-118.83c-0.42-11.78,7.87-22.08,19.47-24.19c53.06-9.66,142.79-27.97,245.62-66.19
			c143.61-53.37,263.11-127.24,355.2-219.54l97.72,97.49c-106.24,106.49-242.44,191.09-404.83,251.44
			c-129.1,47.98-241.81,67.86-289.94,76.35C1045.65,686.26,1038.5,687.52,1034.95,688.28z"/>
	</g>
</g>
<g>
	<path class="st13" d="M1499.23,260.19c61.16-4.65,176.93-17.2,283.93-49.73c9.46-2.88,18.34,5.84,15.56,15.33
		c-14.13,48.35-46.12,166.02-54.46,266.6c-0.98,11.87-16.56,15.64-22.86,5.54c-31.53-50.52-101.48-142.23-227.44-214.65
		C1483.39,277.21,1487.08,261.11,1499.23,260.19z"/>
</g>
<g class="st14">
	<path class="st9" d="M1280.89,283.02c0,0-25.25-48.56-89.13-42.47c-63.88,6.08-56.28,54.76-86.7,50.19
		c-30.42-4.56-73.01,0-82.13,30.42c-9.13,30.42-50.19,13.69-51.71,39.55c-1.52,25.86,47.15,44.11,103.43,21.29
		c56.28-22.82,83.66,17.72,162.75,10.38c79.09-7.34,88.89-16.47,135.71-11.9c46.81,4.56,45.7-27.49,24.41-48.79
		C1376.22,310.4,1290.02,312.42,1280.89,283.02z"/>
</g>
<g class="st15">
	<path class="st9" d="M1809.74,580.89c0,0-17.01-32.71-60.04-28.61c-43.04,4.1-37.91,36.89-58.41,33.81
		c-20.49-3.07-49.18,0-55.33,20.49c-6.15,20.49-33.81,9.22-34.84,26.64c-1.02,17.42,31.76,29.72,69.68,14.35
		c37.91-15.37,56.36,11.94,109.64,6.99c53.28-4.95,59.88-11.09,91.42-8.02c31.54,3.07,30.79-18.52,16.44-32.87
		S1815.89,600.7,1809.74,580.89z"/>
</g>
<g class="st15">
	<path class="st9" d="M951.91,454.58c0,0-11.69-27.9-41.26-24.4s-26.05,31.46-40.13,28.84c-14.08-2.62-33.79,0-38.02,17.48
		c-4.22,17.48-23.23,7.87-23.94,22.72c-0.7,14.86,21.83,25.34,47.88,12.23c26.05-13.11,38.72,10.18,75.33,5.97
		c36.61-4.22,41.15-9.46,62.82-6.84c21.67,2.62,21.16-15.8,11.3-28.03C996.03,470.31,956.13,471.48,951.91,454.58z"/>
</g>
<g class="st15">
	<path class="st9" d="M1004.8,739.32c0,0-9.48-22.63-33.47-19.8c-23.99,2.84-21.13,25.52-32.56,23.4
		c-11.42-2.13-27.42,0-30.85,14.18c-3.43,14.18-18.85,6.38-19.42,18.43c-0.57,12.05,17.71,20.56,38.84,9.93
		c21.13-10.64,31.42,8.26,61.12,4.84c29.7-3.42,33.38-7.68,50.96-5.55c17.58,2.13,17.16-12.81,9.17-22.74
		C1040.59,752.08,1008.22,753.03,1004.8,739.32z"/>
</g>
<g>
	<g>
		<path class="st16" d="M968.21,1500c0,0-28.23-26.98-18.51-42.34c9.71-15.37,26.1,33.01,26.1,33.01s-8.5-57.2,9.11-58.19
			c17.6-0.99,0,58.19,0,58.19s6.53-13.8,12.9-14.65c6.37-0.85,4.55,11.7-6.83,23.99H968.21z"/>
	</g>
	<g>
		<path class="st17" d="M970.28,1500.72c-1.33-1.27-32.48-31.37-21.16-49.28c1.79-2.84,3.94-4.13,6.39-3.85
			c8.29,0.98,17.37,21.34,22.02,33.31c-1.54-14.8-3.34-44.22,5.14-54.63c1.96-2.41,4.38-3.7,7.18-3.87c2.67-0.04,4.93,0.82,6.57,2.9
			c7.56,9.55,0.46,41.62-3.42,56.62c2.93-4.49,7.12-9.56,11.39-10.14c2.16-0.29,3.7,0.5,4.57,2.18c2.35,4.53-1.29,15.76-11.45,26.71
			l-1.47-1.36c9.96-10.75,12.87-21.11,11.14-24.44c-0.47-0.91-1.31-1.24-2.52-1.11c-5.48,0.74-11.86,11.84-13.85,16.07l-1.87-0.72
			c0.15-0.51,15.03-51.05,5.9-62.59c-1.22-1.57-2.94-2.28-4.88-2.13c-2.26,0.12-4.14,1.15-5.75,3.12
			c-10.72,13.17-3.72,61.25-3.65,61.74l-1.94,0.47c-3.67-10.84-15.02-39.17-23.36-40.16c-1.66-0.17-3.09,0.78-4.45,2.93
			c-10.46,16.54,20.53,46.48,20.84,46.78L970.28,1500.72z"/>
	</g>
</g>
<g>
	<g>
		<path class="st16" d="M612.04,1422.03c0,0-28.23-26.98-18.51-42.34c9.71-15.37,26.1,33.01,26.1,33.01s-8.5-57.2,9.11-58.19
			c17.6-0.99,0,58.19,0,58.19s6.53-13.8,12.9-14.65c6.37-0.85,4.55,11.7-6.83,23.99H612.04z"/>
	</g>
	<g>
		<path class="st17" d="M614.1,1422.74c-1.33-1.27-32.48-31.37-21.15-49.28c1.81-2.84,3.99-4.12,6.39-3.85
			c8.28,0.99,17.37,21.35,22.02,33.31c-1.54-14.79-3.34-44.22,5.14-54.63c1.96-2.41,4.38-3.7,7.18-3.87c0.19,0,0.37-0.01,0.55-0.01
			c2.47,0,4.49,0.98,6.02,2.91c7.56,9.56,0.47,41.62-3.42,56.61c2.93-4.49,7.12-9.54,11.4-10.11c2.05-0.29,3.68,0.5,4.56,2.18
			c2.34,4.51-1.3,15.74-11.45,26.7l-1.47-1.36c9.96-10.75,12.87-21.09,11.14-24.43c-0.48-0.91-1.3-1.32-2.52-1.11
			c-5.48,0.73-11.86,11.83-13.85,16.06l-1.87-0.72c0.15-0.51,15.03-51.04,5.9-62.58c-1.13-1.43-2.6-2.14-4.45-2.14
			c-0.14,0-0.29,0-0.43,0.01c-2.26,0.12-4.13,1.15-5.75,3.12c-10.72,13.17-3.72,61.25-3.65,61.74l-1.94,0.47
			c-3.67-10.84-15.02-39.16-23.36-40.16c-1.62-0.2-3.08,0.76-4.45,2.93c-10.47,16.54,20.52,46.48,20.84,46.78L614.1,1422.74z"/>
	</g>
</g>
<g>
	<g>
		<path class="st16" d="M1644.33,1479.06c0,0-28.23-26.98-18.51-42.34c9.71-15.37,26.1,33.01,26.1,33.01s-8.5-57.2,9.11-58.19
			c17.6-0.99,0,58.19,0,58.19s6.53-13.8,12.9-14.65c6.37-0.85,4.55,11.7-6.83,23.99H1644.33z"/>
	</g>
	<g>
		<path class="st17" d="M1646.4,1479.79c-1.33-1.27-32.48-31.37-21.16-49.29c1.8-2.86,3.97-4.14,6.39-3.85
			c8.28,0.99,17.37,21.37,22.02,33.33c-1.54-14.8-3.34-44.22,5.15-54.64c1.96-2.4,4.37-3.69,7.17-3.86c0.19,0,0.38-0.01,0.55-0.01
			c2.47,0,4.49,0.98,6.02,2.91c7.57,9.56,0.47,41.62-3.42,56.62c2.93-4.49,7.12-9.56,11.39-10.14c2.14-0.29,3.69,0.5,4.57,2.18
			c2.35,4.53-1.29,15.76-11.43,26.71l-1.47-1.36c9.96-10.75,12.86-21.11,11.13-24.44c-0.47-0.91-1.3-1.25-2.52-1.11
			c-5.48,0.74-11.86,11.84-13.85,16.07l-1.87-0.72c0.15-0.51,15.04-51.04,5.91-62.59c-1.14-1.43-2.6-2.14-4.45-2.14
			c-0.14,0-0.29,0-0.44,0.01c-2.26,0.12-4.13,1.15-5.74,3.12c-10.73,13.16-3.73,61.25-3.66,61.74l-1.94,0.47
			c-3.67-10.84-15.02-39.17-23.36-40.16c-0.14-0.03-0.27-0.03-0.41-0.03c-1.47,0-2.79,0.97-4.04,2.95
			c-10.46,16.55,20.53,46.49,20.84,46.79L1646.4,1479.79z"/>
	</g>
</g>
<g>
	<g>
		<path class="st16" d="M2034.11,1479.06c0,0-28.23-26.98-18.51-42.34c9.71-15.37,26.1,33.01,26.1,33.01s-8.5-57.2,9.11-58.19
			c17.6-0.99,0,58.19,0,58.19s6.53-13.8,12.9-14.65s4.55,11.7-6.83,23.99H2034.11z"/>
	</g>
	<g>
		<path class="st17" d="M2036.18,1479.79c-1.33-1.27-32.48-31.37-21.16-49.29c1.81-2.86,3.97-4.14,6.38-3.85
			c8.29,0.99,17.37,21.37,22.02,33.33c-1.54-14.79-3.35-44.22,5.14-54.64c1.96-2.4,4.37-3.69,7.17-3.86c0.19,0,0.38-0.01,0.55-0.01
			c2.47,0,4.49,0.98,6.02,2.91c7.57,9.56,0.47,41.62-3.42,56.62c2.93-4.49,7.12-9.56,11.4-10.14c2.16-0.29,3.7,0.5,4.57,2.18
			c2.34,4.53-1.29,15.76-11.44,26.71l-1.47-1.36c9.96-10.76,12.87-21.11,11.13-24.44c-0.47-0.91-1.32-1.29-2.52-1.11
			c-5.49,0.74-11.86,11.84-13.86,16.07l-1.87-0.72c0.15-0.51,15.04-51.04,5.91-62.59c-1.14-1.43-2.6-2.14-4.45-2.14
			c-0.14,0-0.29,0-0.44,0.01c-2.26,0.12-4.13,1.15-5.74,3.12c-10.72,13.16-3.72,61.25-3.65,61.74l-1.94,0.47
			c-3.67-10.84-15.03-39.17-23.36-40.16c-0.14-0.03-0.27-0.03-0.41-0.03c-1.47,0-2.79,0.97-4.04,2.95
			c-10.46,16.55,20.53,46.49,20.84,46.79L2036.18,1479.79z"/>
	</g>
</g>
</svg>
